<?xml version="1.0" encoding="utf-8"?><svg xmlns="http://www.w3.org/2000/svg" xmlns:xlink="http://www.w3.org/1999/xlink"><symbol viewBox="0 0 17 17" id="address" xmlns="http://www.w3.org/2000/svg"><path d="M8.4882 0C5.05271 0 2.25781 2.7949 2.25781 6.23038C2.25781 7.80857 3.25222 10.0384 5.21354 12.8579C6.64711 14.919 8.05708 16.5139 8.11648 16.5808L8.4882 17L8.86005 16.5808C8.91932 16.5139 10.3293 14.919 11.763 12.8579C13.7242 10.0384 14.7187 7.80857 14.7187 6.23038C14.7187 2.7949 11.9237 0 8.4882 0ZM10.9525 12.2823C9.98351 13.6763 9.00414 14.876 8.4882 15.4881C7.97355 14.8777 6.99782 13.6825 6.02948 12.2903C4.21226 9.67793 3.2517 7.58237 3.2517 6.23038C3.2517 3.34301 5.60082 0.993889 8.4882 0.993889C11.3757 0.993889 13.7247 3.34301 13.7247 6.23038C13.7247 7.58095 12.7661 9.67365 10.9525 12.2823Z"/><path d="M8.48821 2.30267C6.46062 2.30267 4.8111 3.95219 4.8111 5.97979C4.8111 8.00739 6.46062 9.65704 8.48821 9.65704C10.5159 9.65704 12.1655 8.00739 12.1655 5.97979C12.1655 3.95219 10.5159 2.30267 8.48821 2.30267ZM8.48821 8.66315C7.00873 8.66315 5.80499 7.4594 5.80499 5.97979C5.80499 4.50031 7.00873 3.29656 8.48821 3.29656C9.96783 3.29656 11.1716 4.50031 11.1716 5.97979C11.1716 7.4594 9.96783 8.66315 8.48821 8.66315Z"/></symbol><symbol viewBox="0 0 23 17" id="email" xmlns="http://www.w3.org/2000/svg"><path d="M19.6115 0H2.73165C1.22485 0 0 1.22485 0 2.73165V14.2684C0 15.7752 1.22485 17 2.73165 17H19.6069C21.1137 17 22.3385 15.7752 22.3385 14.2684V2.73627C22.3431 1.22947 21.1183 0 19.6115 0ZM21.0952 14.2684C21.0952 15.0865 20.4296 15.752 19.6115 15.752H2.73165C1.91354 15.752 1.24796 15.0865 1.24796 14.2684V2.73627C1.24796 1.91816 1.91354 1.25258 2.73165 1.25258H19.6069C20.425 1.25258 21.0905 1.91816 21.0905 2.73627V14.2684H21.0952Z"/><path d="M14.088 8.35673L19.5513 3.45733C19.8055 3.22623 19.8287 2.83335 19.5975 2.57451C19.3664 2.3203 18.9736 2.29719 18.7147 2.52829L11.1807 9.29039L9.71093 7.97772C9.7063 7.9731 9.70168 7.96848 9.70168 7.96386C9.66933 7.9315 9.63697 7.90377 9.59999 7.87604L3.61903 2.52367C3.36019 2.29257 2.96731 2.31568 2.73621 2.57451C2.50511 2.83335 2.52822 3.22623 2.78705 3.45733L8.31506 8.39833L2.81016 13.552C2.56057 13.7877 2.54671 14.1806 2.78243 14.4348C2.90723 14.5642 3.07362 14.6335 3.24002 14.6335C3.39255 14.6335 3.54507 14.5781 3.66525 14.4671L9.25334 9.23955L10.7694 10.5938C10.8896 10.7001 11.0375 10.751 11.1854 10.751C11.3333 10.751 11.4858 10.6955 11.6014 10.5892L13.159 9.19333L18.7147 14.4717C18.8349 14.5873 18.9921 14.6428 19.1446 14.6428C19.311 14.6428 19.4728 14.5781 19.5975 14.4486C19.8333 14.199 19.824 13.8015 19.5744 13.5658L14.088 8.35673Z"/></symbol><symbol viewBox="0 0 24 25" id="heart" xmlns="http://www.w3.org/2000/svg"><path fill-rule="evenodd" clip-rule="evenodd" d="M12.6924 7.58373C12.3055 7.95505 11.6945 7.95505 11.3076 7.58373L10.6152 6.91927C9.80477 6.14154 8.70994 5.66667 7.5 5.66667C5.01472 5.66667 3 7.68139 3 10.1667C3 12.5493 4.28979 14.5167 6.15176 16.1332C8.01532 17.7511 10.2434 18.8241 11.5746 19.3717C11.853 19.4862 12.147 19.4862 12.4254 19.3717C13.7566 18.8241 15.9847 17.7511 17.8482 16.1332C19.7102 14.5167 21 12.5493 21 10.1667C21 7.68139 18.9853 5.66667 16.5 5.66667C15.2901 5.66667 14.1952 6.14154 13.3848 6.91927L12.6924 7.58373ZM12 5.47624C10.8321 4.35548 9.24649 3.66667 7.5 3.66667C3.91015 3.66667 1 6.57682 1 10.1667C1 16.5349 7.97034 20.0517 10.8138 21.2214C11.5796 21.5364 12.4204 21.5364 13.1862 21.2214C16.0297 20.0517 23 16.5349 23 10.1667C23 6.57682 20.0899 3.66667 16.5 3.66667C14.7535 3.66667 13.1679 4.35548 12 5.47624Z"/></symbol><symbol viewBox="0 0 24 24" id="heart-line" xmlns="http://www.w3.org/2000/svg"><path d="M12.001 4.52853C14.35 2.42 17.98 2.49 20.2426 4.75736C22.5053 7.02472 22.583 10.637 20.4786 12.993L11.9999 21.485L3.52138 12.993C1.41705 10.637 1.49571 7.01901 3.75736 4.75736C6.02157 2.49315 9.64519 2.41687 12.001 4.52853ZM18.827 6.1701C17.3279 4.66794 14.9076 4.60701 13.337 6.01687L12.0019 7.21524L10.6661 6.01781C9.09098 4.60597 6.67506 4.66808 5.17157 6.17157C3.68183 7.66131 3.60704 10.0473 4.97993 11.6232L11.9999 18.6543L19.0201 11.6232C20.3935 10.0467 20.319 7.66525 18.827 6.1701Z"/></symbol><symbol viewBox="0 0 24 24" id="id-card-line" xmlns="http://www.w3.org/2000/svg"><path d="M3 6H21V18H3V6ZM2 4C1.44772 4 1 4.44772 1 5V19C1 19.5523 1.44772 20 2 20H22C22.5523 20 23 19.5523 23 19V5C23 4.44772 22.5523 4 22 4H2ZM13 8H19V10H13V8ZM18 12H13V14H18V12ZM10.5 10C10.5 11.3807 9.38071 12.5 8 12.5C6.61929 12.5 5.5 11.3807 5.5 10C5.5 8.61929 6.61929 7.5 8 7.5C9.38071 7.5 10.5 8.61929 10.5 10ZM8 13.5C6.067 13.5 4.5 15.067 4.5 17H11.5C11.5 15.067 9.933 13.5 8 13.5Z"/></symbol><symbol viewBox="0 0 25 24" id="menu" xmlns="http://www.w3.org/2000/svg"><path d="M3.5 18H21.5V16H3.5V18ZM3.5 13H21.5V11H3.5V13ZM3.5 6V8H21.5V6H3.5Z"/></symbol><symbol viewBox="0 0 10 18" id="phone" xmlns="http://www.w3.org/2000/svg"><path d="M8.8373 0H1.1627C0.523313 0 0 0.522821 0 1.1627V16.0511C0 16.6909 0.523313 17.2142 1.1627 17.2142H8.8373C9.47669 17.2142 10 16.6919 10 16.0515V1.1627C10 0.522821 9.47669 0 8.8373 0ZM3.77238 0.838088H6.22762C6.30533 0.838088 6.36829 0.901043 6.36829 0.979245C6.36829 1.05695 6.30533 1.11991 6.22762 1.11991H3.77238C3.69467 1.11991 3.63171 1.05695 3.63171 0.979245C3.63171 0.901043 3.69467 0.838088 3.77238 0.838088ZM5 16.6329C4.67883 16.6329 4.41865 16.3727 4.41865 16.0511C4.41865 15.7294 4.67883 15.4697 5 15.4697C5.32117 15.4697 5.58135 15.7294 5.58135 16.0511C5.58135 16.3727 5.32117 16.6329 5 16.6329ZM9.19093 15.0625H0.809069V1.84389H9.19093V15.0625Z"/></symbol><symbol viewBox="0 0 24 24" id="search" xmlns="http://www.w3.org/2000/svg"><path d="M18.5 18.5L22 22M21 11.5C21 6.25329 16.7467 2 11.5 2C6.25329 2 2 6.25329 2 11.5C2 16.7467 6.25329 21 11.5 21C16.7467 21 21 16.7467 21 11.5Z" stroke-width="1.5" stroke-linecap="round" stroke-linejoin="round"/></symbol><symbol viewBox="0 0 24 24" id="search-line" xmlns="http://www.w3.org/2000/svg"><path d="M18.031 16.6168L22.3137 20.8995L20.8995 22.3137L16.6168 18.031C15.0769 19.263 13.124 20 11 20C6.032 20 2 15.968 2 11C2 6.032 6.032 2 11 2C15.968 2 20 6.032 20 11C20 13.124 19.263 15.0769 18.031 16.6168ZM16.0247 15.8748C17.2475 14.6146 18 12.8956 18 11C18 7.1325 14.8675 4 11 4C7.1325 4 4 7.1325 4 11C4 14.8675 7.1325 18 11 18C12.8956 18 14.6146 17.2475 15.8748 16.0247L16.0247 15.8748Z"/></symbol><symbol viewBox="0 0 17 17" id="time" xmlns="http://www.w3.org/2000/svg"><path d="M8.5 0C3.80558 0 0 3.80558 0 8.5C0 13.1944 3.80558 17 8.5 17C13.1944 17 17 13.1944 17 8.5C16.994 3.80809 13.1919 0.00601673 8.5 0ZM8.86465 16.2525V14.7574C8.86465 14.556 8.70138 14.3928 8.5 14.3928C8.29862 14.3928 8.13535 14.556 8.13535 14.7574V16.2525C4.13691 16.0616 0.938428 12.8631 0.747533 8.86465H2.2426C2.44398 8.86465 2.60725 8.70138 2.60725 8.5C2.60725 8.29862 2.44398 8.13535 2.2426 8.13535H0.747533C0.938428 4.13691 4.13691 0.938428 8.13535 0.747533V2.2426C8.13535 2.44398 8.29862 2.60725 8.5 2.60725C8.70138 2.60725 8.86465 2.44398 8.86465 2.2426V0.747533C12.8631 0.938428 16.0616 4.13691 16.2525 8.13535H14.7574C14.556 8.13535 14.3928 8.29862 14.3928 8.5C14.3928 8.70138 14.556 8.86465 14.7574 8.86465H14.761H16.2561C16.0651 12.8644 12.8645 16.0634 8.86465 16.2525Z"/><path d="M12.3471 11.8913L8.86465 8.35049V4.67117C8.86465 4.46979 8.70137 4.30652 8.5 4.30652C8.29862 4.30652 8.13535 4.46979 8.13535 4.67117V8.5C8.13576 8.59568 8.17373 8.68734 8.24109 8.75526L11.8256 12.4018C11.9666 12.5458 12.1976 12.5482 12.3416 12.4072C12.4856 12.2662 12.488 12.0352 12.3471 11.8913Z"/></symbol><symbol viewBox="0 0 24 24" id="user" xmlns="http://www.w3.org/2000/svg"><path d="M18.5588 19.5488C17.5654 16.8918 15.0036 15 12 15C8.99638 15 6.4346 16.8918 5.44117 19.5488M18.5588 19.5488C20.6672 17.7154 22 15.0134 22 12C22 6.47715 17.5228 2 12 2C6.47715 2 2 6.47715 2 12C2 15.0134 3.33285 17.7154 5.44117 19.5488M18.5588 19.5488C16.8031 21.0756 14.5095 22 12 22C9.49052 22 7.19694 21.0756 5.44117 19.5488M15 9C15 10.6569 13.6569 12 12 12C10.3431 12 9 10.6569 9 9C9 7.34315 10.3431 6 12 6C13.6569 6 15 7.34315 15 9Z" stroke-width="1.5" stroke-linejoin="round"/></symbol><symbol viewBox="0 0 24 24" id="user-star-line" xmlns="http://www.w3.org/2000/svg"><path d="M12 14V16C8.68629 16 6 18.6863 6 22H4C4 17.5817 7.58172 14 12 14ZM12 13C8.685 13 6 10.315 6 7C6 3.685 8.685 1 12 1C15.315 1 18 3.685 18 7C18 10.315 15.315 13 12 13ZM12 11C14.21 11 16 9.21 16 7C16 4.79 14.21 3 12 3C9.79 3 8 4.79 8 7C8 9.21 9.79 11 12 11ZM18 21.5L15.0611 23.0451L15.6224 19.7725L13.2447 17.4549L16.5305 16.9775L18 14L19.4695 16.9775L22.7553 17.4549L20.3776 19.7725L20.9389 23.0451L18 21.5Z"/></symbol><symbol id="website" enable-background="new 0 0 497 497" viewBox="0 0 497 497" xmlns="http://www.w3.org/2000/svg"><g><path d="m497 128.5v312c0 11.046-8.954 20-20 20h-457c-11.046 0-20-8.954-20-20v-312z"/><g><path d="m290.498 294.5c0-23.196-18.804-42-42-42-7.031 0-13.659 1.728-19.482 4.782-13.386 7.021-19.327 21.053-19.327 37.218 0 23.196 15.613 36.457 38.809 36.457 16.214 0 30.282-3.645 37.282-17.099 3.014-5.792 4.718-12.376 4.718-19.358z"/><path d="m286.468 312.47c-6.73 14.21-21.2 24.03-37.97 24.03-23.2 0-42-18.8-42-42 0-16.77 9.82-31.24 24.03-37.97-2.59 5.45-4.03 11.54-4.03 17.97 0 23.2 18.8 42 42 42 6.43 0 12.52-1.44 17.97-4.03z"/></g><g><path d="m429.496 294.5c0-23.196-18.804-42-42-42-7.031 0-13.659 1.728-19.482 4.782-13.386 7.021-19.327 21.053-19.327 37.218 0 23.196 15.613 36.457 38.809 36.457 16.214 0 30.282-3.645 37.282-17.099 3.014-5.792 4.718-12.376 4.718-19.358z"/><path d="m425.466 312.47c-6.73 14.21-21.2 24.03-37.97 24.03-23.2 0-42-18.8-42-42 0-16.77 9.82-31.24 24.03-37.97-2.59 5.45-4.03 11.54-4.03 17.97 0 23.2 18.8 42 42 42 6.43 0 12.52-1.44 17.97-4.03z"/></g><path d="m497 148.5v-20l-276.011-12.798-220.989 12.798v20 292c0 11.046 8.954 20 20 20h15c-8.28 0-15-6.72-15-15v-291c0-3.314 2.686-6 6-6z"/><g><path d="m497 56.5v72.5h-497v-72.5c0-11.046 8.954-20 20-20h457c11.046 0 20 8.954 20 20z"/><g><path d="m227.758 108.5c-8.255 0-14.947-6.716-14.947-15s6.692-15 14.947-15h208.315c8.255 0 14.947 6.716 14.947 15s-6.692 15-14.947 15z"/><ellipse cx="160.869" cy="93.5" rx="14.947" ry="15"/><path d="m171.361 104.184 12.874-12.869-13.139 1.179z"/><path d="m150.592 82.608 12.562-12.516-2.693 10.408z"/><ellipse cx="98.034" cy="93.5" rx="14.947" ry="15"/><path d="m108.553 104.157 12.382-12.499-12.674.836z"/><path d="m87.757 82.608 12.371-12.459-2.502 10.351z"/><ellipse cx="32.947" cy="93.5" rx="14.947" ry="15"/><path d="m43.769 103.846 12.721-13.186-13.139 1.381z"/><path d="m22.67 82.608 11.622-12.038-1.753 9.93z"/></g><ellipse cx="173.849" cy="80.5" rx="14.947" ry="15"/><path d="m217.514 82.577 12.971-12.991-3.025 14.276z"/><path d="m446.83 103.915 13.149-13.179-10.185 3.381z"/><ellipse cx="110.946" cy="80.5" rx="14.947" ry="15"/><ellipse cx="45.495" cy="80.5" rx="14.947" ry="15"/><path d="m240.737 95.5c-8.255 0-14.947-6.716-14.947-15s6.692-15 14.947-15h208.315c8.255 0 14.947 6.716 14.947 15s-6.692 15-14.947 15z"/></g><path d="m135.893 215 226.628 2c5.523 0 10-4.477 10-10l3.479-7v-30c0-5.523-4.477-10-10-10h-224l-6.107 5c-5.523 0-10 4.477-10 10v30c0 5.523 4.477 10 10 10z"/><path d="m376 200v10c0 5.523-4.477 10-10 10h-234c-5.523 0-10-4.477-10-10v-40c0-5.523 4.477-10 10-10h10v33c0 3.866 3.134 7 7 7z"/><g><path d="m151.5 294.5c0-23.196-18.804-42-42-42-7.031 0-13.659 1.728-19.482 4.782-13.386 7.021-19.327 21.053-19.327 37.218 0 23.196 15.613 36.457 38.809 36.457 16.214 0 30.282-3.645 37.282-17.099 3.014-5.792 4.718-12.376 4.718-19.358z"/><path d="m147.47 312.47c-6.73 14.21-21.2 24.03-37.97 24.03-23.2 0-42-18.8-42-42 0-16.77 9.82-31.24 24.03-37.97-2.59 5.45-4.03 11.54-4.03 17.97 0 23.2 18.8 42 42 42 6.43 0 12.52-1.44 17.97-4.03z"/></g><g><g><path d="m149.5 374h-70c-4.142 0-7.5-3.358-7.5-7.5s3.358-7.5 7.5-7.5h70c4.142 0 7.5 3.358 7.5 7.5s-3.358 7.5-7.5 7.5z"/></g><g><path d="m149.5 404h-80c-4.142 0-7.5-3.358-7.5-7.5s3.358-7.5 7.5-7.5h80c4.142 0 7.5 3.358 7.5 7.5s-3.358 7.5-7.5 7.5z"/></g><g><path d="m149.5 434h-80c-4.142 0-7.5-3.358-7.5-7.5s3.358-7.5 7.5-7.5h80c4.142 0 7.5 3.358 7.5 7.5s-3.358 7.5-7.5 7.5z"/></g></g><g><g><path d="m288.5 374h-70c-4.142 0-7.5-3.358-7.5-7.5s3.358-7.5 7.5-7.5h70c4.143 0 7.5 3.358 7.5 7.5s-3.357 7.5-7.5 7.5z"/></g><g><path d="m288.5 404h-80c-4.142 0-7.5-3.358-7.5-7.5s3.358-7.5 7.5-7.5h80c4.143 0 7.5 3.358 7.5 7.5s-3.357 7.5-7.5 7.5z"/></g><g><path d="m288.5 434h-80c-4.142 0-7.5-3.358-7.5-7.5s3.358-7.5 7.5-7.5h80c4.143 0 7.5 3.358 7.5 7.5s-3.357 7.5-7.5 7.5z"/></g></g><g><g><path d="m427.5 374h-70c-4.143 0-7.5-3.358-7.5-7.5s3.357-7.5 7.5-7.5h70c4.143 0 7.5 3.358 7.5 7.5s-3.357 7.5-7.5 7.5z"/></g><g><path d="m427.5 404h-80c-4.143 0-7.5-3.358-7.5-7.5s3.357-7.5 7.5-7.5h80c4.143 0 7.5 3.358 7.5 7.5s-3.357 7.5-7.5 7.5z"/></g><g><path d="m427.5 434h-80c-4.143 0-7.5-3.358-7.5-7.5s3.357-7.5 7.5-7.5h80c4.143 0 7.5 3.358 7.5 7.5s-3.357 7.5-7.5 7.5z"/></g></g></g></symbol></svg>