<?xml version="1.0" encoding="utf-8"?><svg viewBox="0 0 512 512" xmlns="http://www.w3.org/2000/svg" xmlns:xlink="http://www.w3.org/1999/xlink"><style>:root>svg{display:none}:root>svg:target{display:block}</style><svg fill="none" viewBox="0 0 17 17" id="address" xmlns="http://www.w3.org/2000/svg"><path d="M8.488 0a6.237 6.237 0 0 0-6.23 6.23c0 1.579.994 3.808 2.956 6.628a44.451 44.451 0 0 0 2.902 3.723l.372.419.372-.42c.06-.066 1.47-1.661 2.903-3.722 1.961-2.82 2.956-5.05 2.956-6.628A6.237 6.237 0 0 0 8.489 0Zm2.465 12.282a45.188 45.188 0 0 1-2.465 3.206A45.143 45.143 0 0 1 6.03 12.29C4.212 9.678 3.252 7.582 3.252 6.23A5.242 5.242 0 0 1 8.488.994a5.242 5.242 0 0 1 5.237 5.236c0 1.35-.959 3.444-2.772 6.052Z" fill="#005FA3"/><path d="M8.488 2.303A3.681 3.681 0 0 0 4.811 5.98a3.681 3.681 0 0 0 3.677 3.677 3.681 3.681 0 0 0 3.678-3.677 3.681 3.681 0 0 0-3.678-3.677Zm0 6.36A2.686 2.686 0 0 1 5.805 5.98a2.686 2.686 0 0 1 2.683-2.683 2.686 2.686 0 0 1 2.684 2.683 2.686 2.686 0 0 1-2.684 2.683Z" fill="#005FA3"/></svg><svg fill="none" viewBox="0 0 23 17" id="email" xmlns="http://www.w3.org/2000/svg"><path d="M19.611 0H2.732A2.734 2.734 0 0 0 0 2.732v11.536A2.734 2.734 0 0 0 2.732 17h16.875a2.734 2.734 0 0 0 2.732-2.732V2.736A2.731 2.731 0 0 0 19.611 0Zm1.484 14.268c0 .818-.665 1.484-1.483 1.484H2.732a1.485 1.485 0 0 1-1.484-1.484V2.736c0-.818.666-1.483 1.484-1.483h16.875c.818 0 1.483.665 1.483 1.483v11.532h.005Z" fill="#005FA3"/><path d="m14.088 8.357 5.463-4.9a.627.627 0 0 0 .047-.882.627.627 0 0 0-.883-.047L11.18 9.29 9.71 7.978c-.005-.005-.01-.01-.01-.014a.923.923 0 0 0-.101-.088L3.619 2.524a.623.623 0 0 0-.883.05.623.623 0 0 0 .051.883l5.528 4.941-5.505 5.154a.626.626 0 0 0 .855.915L9.253 9.24l1.516 1.354a.624.624 0 0 0 .832-.005l1.558-1.396 5.556 5.279a.623.623 0 1 0 .86-.906l-5.487-5.21Z" fill="#005FA3"/></svg><svg fill="none" viewBox="0 0 24 25" id="heart" xmlns="http://www.w3.org/2000/svg"><path fill-rule="evenodd" clip-rule="evenodd" d="M12.692 7.584a1 1 0 0 1-1.384 0l-.693-.665A4.5 4.5 0 0 0 3 10.166c0 2.383 1.29 4.35 3.152 5.967 1.863 1.618 4.091 2.691 5.423 3.239.278.114.572.114.85 0 1.332-.548 3.56-1.62 5.423-3.239C19.71 14.517 21 12.55 21 10.167a4.5 4.5 0 0 0-7.615-3.248l-.693.665ZM12 5.476a6.5 6.5 0 0 0-11 4.69c0 6.369 6.97 9.886 9.814 11.055a3.096 3.096 0 0 0 2.372 0C16.03 20.051 23 16.535 23 10.167a6.5 6.5 0 0 0-11-4.69Z" fill="#141718"/></svg><svg fill="none" viewBox="0 0 24 24" id="heart-line" xmlns="http://www.w3.org/2000/svg"><path d="M12.001 4.529a5.998 5.998 0 0 1 8.242.228 6 6 0 0 1 .236 8.236l-8.48 8.492-8.478-8.492a6 6 0 0 1 8.48-8.464Zm6.826 1.641a3.998 3.998 0 0 0-5.49-.153l-1.335 1.198-1.336-1.197a4 4 0 0 0-5.686 5.605L12 18.654l7.02-7.03a4 4 0 0 0-.193-5.454Z" fill="#000"/></svg><svg fill="none" viewBox="0 0 24 24" id="id-card-line" xmlns="http://www.w3.org/2000/svg"><path d="M3 6h18v12H3V6ZM2 4a1 1 0 0 0-1 1v14a1 1 0 0 0 1 1h20a1 1 0 0 0 1-1V5a1 1 0 0 0-1-1H2Zm11 4h6v2h-6V8Zm5 4h-5v2h5v-2Zm-7.5-2a2.5 2.5 0 1 1-5 0 2.5 2.5 0 0 1 5 0ZM8 13.5A3.5 3.5 0 0 0 4.5 17h7A3.5 3.5 0 0 0 8 13.5Z" fill="#000"/></svg><svg fill="none" viewBox="0 0 25 24" id="menu" xmlns="http://www.w3.org/2000/svg"><path d="M3.5 18h18v-2h-18v2Zm0-5h18v-2h-18v2Zm0-7v2h18V6h-18Z" fill="#0C0C0C"/></svg><svg fill="none" viewBox="0 0 10 18" id="phone" xmlns="http://www.w3.org/2000/svg"><path d="M8.837 0H1.163C.523 0 0 .523 0 1.163V16.05c0 .64.523 1.163 1.163 1.163h7.674c.64 0 1.163-.522 1.163-1.162V1.162C10 .523 9.477 0 8.837 0ZM3.772.838h2.456a.14.14 0 0 1 0 .282H3.772a.14.14 0 1 1 0-.282ZM5 16.633a.581.581 0 1 1 0-1.163.581.581 0 0 1 0 1.163Zm4.19-1.57H.81V1.842h8.38v13.22Z" fill="#005FA3"/></svg><svg fill="none" viewBox="0 0 24 24" id="search" xmlns="http://www.w3.org/2000/svg"><path d="M18.5 18.5 22 22m-1-10.5a9.5 9.5 0 1 0-19 0 9.5 9.5 0 0 0 19 0Z" stroke="#141718" stroke-width="1.5" stroke-linecap="round" stroke-linejoin="round"/></svg><svg fill="none" viewBox="0 0 24 24" id="search-line" xmlns="http://www.w3.org/2000/svg"><path d="m18.031 16.617 4.283 4.282-1.415 1.415-4.282-4.283A8.96 8.96 0 0 1 11 20c-4.968 0-9-4.032-9-9s4.032-9 9-9 9 4.032 9 9a8.96 8.96 0 0 1-1.969 5.617Zm-2.006-.742A6.977 6.977 0 0 0 18 11c0-3.867-3.133-7-7-7s-7 3.133-7 7 3.133 7 7 7a6.977 6.977 0 0 0 4.875-1.975l.15-.15Z" fill="#000"/></svg><svg fill="none" viewBox="0 0 17 17" id="time" xmlns="http://www.w3.org/2000/svg"><path d="M8.5 0A8.5 8.5 0 1 0 17 8.5 8.51 8.51 0 0 0 8.5 0Zm.365 16.253v-1.496a.365.365 0 0 0-.73 0v1.496A7.767 7.767 0 0 1 .748 8.865h1.495a.365.365 0 0 0 0-.73H.748A7.767 7.767 0 0 1 8.135.748v1.495a.365.365 0 0 0 .73 0V.748a7.767 7.767 0 0 1 7.388 7.387h-1.496a.365.365 0 0 0 0 .73h1.499a7.767 7.767 0 0 1-7.391 7.388Z" fill="#005FA3"/><path d="m12.347 11.891-3.482-3.54V4.67a.365.365 0 0 0-.73 0V8.5c0 .096.039.187.106.255l3.585 3.647a.365.365 0 0 0 .521-.51Z" fill="#005FA3"/></svg><svg fill="none" viewBox="0 0 24 24" id="user" xmlns="http://www.w3.org/2000/svg"><path d="M18.559 19.549a7.003 7.003 0 0 0-13.118 0m13.118 0A9.976 9.976 0 0 0 22 12c0-5.523-4.477-10-10-10S2 6.477 2 12a9.977 9.977 0 0 0 3.441 7.549m13.118 0A9.961 9.961 0 0 1 12 22a9.961 9.961 0 0 1-6.559-2.451M15 9a3 3 0 1 1-6 0 3 3 0 0 1 6 0Z" stroke="#141718" stroke-width="1.5" stroke-linejoin="round"/></svg><svg fill="none" viewBox="0 0 24 24" id="user-star-line" xmlns="http://www.w3.org/2000/svg"><path d="M12 14v2a6 6 0 0 0-6 6H4a8 8 0 0 1 8-8Zm0-1c-3.315 0-6-2.685-6-6s2.685-6 6-6 6 2.685 6 6-2.685 6-6 6Zm0-2c2.21 0 4-1.79 4-4s-1.79-4-4-4-4 1.79-4 4 1.79 4 4 4Zm6 10.5-2.939 1.545.561-3.273-2.377-2.317 3.286-.477L18 14l1.47 2.977 3.285.478-2.377 2.318.56 3.272L18 21.5Z" fill="#000"/></svg><svg viewBox="0 0 497 497" id="website" xmlns="http://www.w3.org/2000/svg"><path d="M497 128.5v312c0 11.046-8.954 20-20 20H20c-11.046 0-20-8.954-20-20v-312z" fill="#faf8f8"/><path d="M290.498 294.5c0-23.196-18.804-42-42-42a41.823 41.823 0 0 0-19.482 4.782c-13.386 7.021-19.327 21.053-19.327 37.218 0 23.196 15.613 36.457 38.809 36.457 16.214 0 30.282-3.645 37.282-17.099a41.814 41.814 0 0 0 4.718-19.358z" fill="#dc4955"/><path d="M286.468 312.47c-6.73 14.21-21.2 24.03-37.97 24.03-23.2 0-42-18.8-42-42 0-16.77 9.82-31.24 24.03-37.97-2.59 5.45-4.03 11.54-4.03 17.97 0 23.2 18.8 42 42 42 6.43 0 12.52-1.44 17.97-4.03z" fill="#d82f3c"/><path d="M429.496 294.5c0-23.196-18.804-42-42-42a41.823 41.823 0 0 0-19.482 4.782c-13.386 7.021-19.327 21.053-19.327 37.218 0 23.196 15.613 36.457 38.809 36.457 16.214 0 30.282-3.645 37.282-17.099a41.814 41.814 0 0 0 4.718-19.358z" fill="#b7e546"/><path d="M425.466 312.47c-6.73 14.21-21.2 24.03-37.97 24.03-23.2 0-42-18.8-42-42 0-16.77 9.82-31.24 24.03-37.97-2.59 5.45-4.03 11.54-4.03 17.97 0 23.2 18.8 42 42 42 6.43 0 12.52-1.44 17.97-4.03z" fill="#abd641"/><path d="M497 148.5v-20l-276.011-12.798L0 128.5v312c0 11.046 8.954 20 20 20h15c-8.28 0-15-6.72-15-15v-291a6 6 0 0 1 6-6z" fill="#f0e9e6"/><path d="M497 56.5V129H0V56.5c0-11.046 8.954-20 20-20h457c11.046 0 20 8.954 20 20z" fill="#5d748a"/><g fill="#3f597d"><path d="M227.758 108.5c-8.255 0-14.947-6.716-14.947-15s6.692-15 14.947-15h208.315c8.255 0 14.947 6.716 14.947 15s-6.692 15-14.947 15z"/><ellipse cx="160.869" cy="93.5" rx="14.947" ry="15"/><path d="m171.361 104.184 12.874-12.869-13.139 1.179zM150.592 82.608l12.562-12.516-2.693 10.408z"/><ellipse cx="98.034" cy="93.5" rx="14.947" ry="15"/><path d="m108.553 104.157 12.382-12.499-12.674.836zM87.757 82.608l12.371-12.459L97.626 80.5z"/><ellipse cx="32.947" cy="93.5" rx="14.947" ry="15"/><path d="M43.769 103.846 56.49 90.66l-13.139 1.381zM22.67 82.608 34.292 70.57l-1.753 9.93z"/></g><ellipse cx="173.849" cy="80.5" fill="#b7e546" rx="14.947" ry="15"/><path d="m217.514 82.577 12.971-12.991-3.025 14.276zM446.83 103.915l13.149-13.179-10.185 3.381z" fill="#3f597d"/><ellipse cx="110.946" cy="80.5" fill="#ffbf54" rx="14.947" ry="15"/><ellipse cx="45.495" cy="80.5" fill="#dc4955" rx="14.947" ry="15"/><path d="M240.737 95.5c-8.255 0-14.947-6.716-14.947-15s6.692-15 14.947-15h208.315c8.255 0 14.947 6.716 14.947 15s-6.692 15-14.947 15z" fill="#faf8f8"/><path d="m135.893 215 226.628 2c5.523 0 10-4.477 10-10l3.479-7v-30c0-5.523-4.477-10-10-10H142l-6.107 5c-5.523 0-10 4.477-10 10v30c0 5.523 4.477 10 10 10z" fill="#aad8de"/><path d="M376 200v10c0 5.523-4.477 10-10 10H132c-5.523 0-10-4.477-10-10v-40c0-5.523 4.477-10 10-10h10v33a7 7 0 0 0 7 7z" fill="#94ccd4"/><path d="M151.5 294.5c0-23.196-18.804-42-42-42a41.823 41.823 0 0 0-19.482 4.782c-13.386 7.021-19.327 21.053-19.327 37.218 0 23.196 15.613 36.457 38.809 36.457 16.214 0 30.282-3.645 37.282-17.099A41.814 41.814 0 0 0 151.5 294.5z" fill="#ffbf54"/><path d="M147.47 312.47c-6.73 14.21-21.2 24.03-37.97 24.03-23.2 0-42-18.8-42-42 0-16.77 9.82-31.24 24.03-37.97-2.59 5.45-4.03 11.54-4.03 17.97 0 23.2 18.8 42 42 42 6.43 0 12.52-1.44 17.97-4.03z" fill="#ffa442"/><path d="M149.5 374h-70a7.5 7.5 0 0 1 0-15h70a7.5 7.5 0 0 1 0 15zM149.5 404h-80a7.5 7.5 0 0 1 0-15h80a7.5 7.5 0 0 1 0 15zM149.5 434h-80a7.5 7.5 0 0 1 0-15h80a7.5 7.5 0 0 1 0 15zM288.5 374h-70a7.5 7.5 0 0 1 0-15h70c4.143 0 7.5 3.358 7.5 7.5s-3.357 7.5-7.5 7.5zM288.5 404h-80a7.5 7.5 0 0 1 0-15h80c4.143 0 7.5 3.358 7.5 7.5s-3.357 7.5-7.5 7.5zM288.5 434h-80a7.5 7.5 0 0 1 0-15h80c4.143 0 7.5 3.358 7.5 7.5s-3.357 7.5-7.5 7.5zM427.5 374h-70c-4.143 0-7.5-3.358-7.5-7.5s3.357-7.5 7.5-7.5h70c4.143 0 7.5 3.358 7.5 7.5s-3.357 7.5-7.5 7.5zM427.5 404h-80c-4.143 0-7.5-3.358-7.5-7.5s3.357-7.5 7.5-7.5h80c4.143 0 7.5 3.358 7.5 7.5s-3.357 7.5-7.5 7.5zM427.5 434h-80c-4.143 0-7.5-3.358-7.5-7.5s3.357-7.5 7.5-7.5h80c4.143 0 7.5 3.358 7.5 7.5s-3.357 7.5-7.5 7.5z" fill="#f0e9e6"/></svg></svg>